<?xml version="1.0" encoding="UTF-8" standalone="no"?>
<!-- Created with Inkscape (http://www.inkscape.org/) -->

<svg
   xmlns:osb="http://www.openswatchbook.org/uri/2009/osb"
   xmlns:dc="http://purl.org/dc/elements/1.1/"
   xmlns:cc="http://creativecommons.org/ns#"
   xmlns:rdf="http://www.w3.org/1999/02/22-rdf-syntax-ns#"
   xmlns:svg="http://www.w3.org/2000/svg"
   xmlns="http://www.w3.org/2000/svg"
   xmlns:xlink="http://www.w3.org/1999/xlink"
   xmlns:sodipodi="http://sodipodi.sourceforge.net/DTD/sodipodi-0.dtd"
   xmlns:inkscape="http://www.inkscape.org/namespaces/inkscape"
   width="609"
   height="609"
   viewBox="0 0 161.13186 161.1322"
   version="1.1"
   id="svg8"
   inkscape:version="0.92.4 (5da689c313, 2019-01-14)"
   sodipodi:docname="ba_logo_same_w&amp;h.svg">
  <defs
     id="defs2">
    <linearGradient
       inkscape:collect="always"
       id="linearGradient2660">
      <stop
         style="stop-color:#00ffff;stop-opacity:1"
         offset="0"
         id="stop2656" />
      <stop
         style="stop-color:#0000ff;stop-opacity:1"
         offset="1"
         id="stop2658" />
    </linearGradient>
    <linearGradient
       id="linearGradient1166"
       osb:paint="solid">
      <stop
         style="stop-color:#00ffff;stop-opacity:1;"
         offset="0"
         id="stop1164" />
    </linearGradient>
    <linearGradient
       inkscape:collect="always"
       id="linearGradient954">
      <stop
         style="stop-color:#00ffff;stop-opacity:1;"
         offset="0"
         id="stop950" />
      <stop
         style="stop-color:#0000ff;stop-opacity:1"
         offset="1"
         id="stop952" />
    </linearGradient>
    <linearGradient
       inkscape:collect="always"
       xlink:href="#linearGradient954"
       id="linearGradient956"
       x1="-128.36855"
       y1="545.32275"
       x2="133.80801"
       y2="545.32275"
       gradientUnits="userSpaceOnUse"
       gradientTransform="matrix(0.26414884,0,0,0.26502454,34.432908,72.294149)" />
    <linearGradient
       inkscape:collect="always"
       xlink:href="#linearGradient954"
       id="linearGradient964"
       x1="96.046875"
       y1="598.01953"
       x2="-127.97656"
       y2="598.01953"
       gradientUnits="userSpaceOnUse"
       gradientTransform="matrix(0.26414884,0,0,0.26502454,34.432908,72.294149)" />
    <linearGradient
       inkscape:collect="always"
       xlink:href="#linearGradient954"
       id="linearGradient1120"
       x1="499.02344"
       y1="598.42969"
       x2="199.97656"
       y2="598.42969"
       gradientUnits="userSpaceOnUse"
       gradientTransform="matrix(0.26414884,0,0,0.26502454,28.885779,72.193248)" />
    <linearGradient
       inkscape:collect="always"
       xlink:href="#linearGradient2660"
       id="linearGradient2662"
       x1="285.84103"
       y1="637.63226"
       x2="438.81766"
       y2="635.90509"
       gradientUnits="userSpaceOnUse"
       gradientTransform="matrix(0.26414884,0,0,0.26502454,28.885779,72.193248)" />
    <linearGradient
       inkscape:collect="always"
       xlink:href="#linearGradient2660"
       id="linearGradient2678"
       x1="285.84103"
       y1="637.63226"
       x2="438.81766"
       y2="635.90509"
       gradientUnits="userSpaceOnUse"
       gradientTransform="matrix(0.26414884,0,0,0.26502454,28.885779,72.193248)" />
  </defs>
  <sodipodi:namedview
     id="base"
     pagecolor="#ffffff"
     bordercolor="#666666"
     borderopacity="1.0"
     inkscape:pageopacity="0.0"
     inkscape:pageshadow="2"
     inkscape:zoom="0.70710678"
     inkscape:cx="335.4928"
     inkscape:cy="306.61873"
     inkscape:document-units="px"
     inkscape:current-layer="layer1"
     showgrid="false"
     units="px"
     showborder="true"
     inkscape:object-paths="true"
     inkscape:snap-intersection-paths="true"
     inkscape:snap-smooth-nodes="true"
     showguides="true"
     inkscape:guide-bbox="true"
     inkscape:window-width="1366"
     inkscape:window-height="715"
     inkscape:window-x="-8"
     inkscape:window-y="-8"
     inkscape:window-maximized="1"
     inkscape:pagecheckerboard="false" />
  <metadata
     id="metadata5">
    <rdf:RDF>
      <cc:Work
         rdf:about="">
        <dc:format>image/svg+xml</dc:format>
        <dc:type
           rdf:resource="http://purl.org/dc/dcmitype/StillImage" />
        <dc:title></dc:title>
      </cc:Work>
    </rdf:RDF>
  </metadata>
  <g
     inkscape:label="Layer 1"
     inkscape:groupmode="layer"
     id="layer1"
     style="opacity:1"
     transform="translate(0,-135.87179)">
    <path
       style="opacity:1;fill:url(#linearGradient1120);fill-opacity:1;stroke:#a184ae;stroke-width:0.25198695;stroke-opacity:0.94611984"
       d="m 121.20576,191.16464 a 39.49654,39.627475 0 0 0 -39.496405,39.62745 39.49654,39.627475 0 0 0 39.496405,39.62742 39.49654,39.627475 0 0 0 23.62792,-7.93365 c 3.57481,4.8132 9.29362,7.92019 15.76277,7.92019 h 5.2e-4 v -36.75976 a 39.49654,39.627475 0 0 0 0.10525,-2.8542 39.49654,39.627475 0 0 0 -39.49646,-39.62745 z m 0,19.81373 a 19.748271,19.813737 0 0 1 19.74824,19.81372 19.748271,19.813737 0 0 1 -19.74824,19.81373 19.748271,19.813737 0 0 1 -19.74821,-19.81373 19.748271,19.813737 0 0 1 19.74821,-19.81372 z"
       id="path1012"
       inkscape:connector-curvature="0"
       inkscape:export-xdpi="2.3114009"
       inkscape:export-ydpi="2.3114009" />
    <path
       style="opacity:1;fill:url(#linearGradient2662);fill-opacity:1;stroke:url(#linearGradient2678);stroke-width:0.18897015;stroke-opacity:1"
       d="m 119.80867,211.02806 a 29.619259,29.717449 0 0 0 -28.222128,29.66779 29.619259,29.717449 0 0 0 29.619218,29.71745 v 0.006 a 39.49654,39.627475 0 0 0 23.46077,-7.84545 c -0.50582,-0.67378 -0.96617,-1.38356 -1.3837,-2.12122 -1.62556,-2.8719 -2.5574,-6.19525 -2.5574,-9.74692 v -17.07289 a 19.74827,19.813736 0 0 1 -19.51967,16.97299 19.74827,19.813736 0 0 1 -19.74821,-19.81373 19.74827,19.813736 0 0 1 18.35112,-19.76403 z"
       id="path1067"
       inkscape:connector-curvature="0"
       inkscape:export-xdpi="2.3114009"
       inkscape:export-ydpi="2.3114009" />
    <path
       style="opacity:1;fill:url(#linearGradient964);fill-opacity:1;stroke:#a184ae;stroke-width:0.27657107;stroke-opacity:0.94611984"
       d="m 40.112107,191.16926 a 39.484267,39.615162 0 0 0 -39.484058,39.61503 39.484267,39.615162 0 0 0 39.484058,39.61499 39.484267,39.615162 0 0 0 39.48406,-39.61499 39.484267,39.615162 0 0 0 -39.48406,-39.61503 z m 0,19.80752 A 19.742134,19.807581 0 0 1 59.854139,230.78429 19.742134,19.807581 0 0 1 40.112107,250.5918 19.742134,19.807581 0 0 1 20.370078,230.78429 19.742134,19.807581 0 0 1 40.112107,210.97678 Z"
       id="path829"
       inkscape:export-xdpi="2.3114009"
       inkscape:export-ydpi="2.3114009"
       inkscape:connector-curvature="0" />
    <path
       style="opacity:1;fill:url(#linearGradient956);fill-opacity:1;stroke:#a184ae;stroke-width:0.20742829;stroke-opacity:0.94611984"
       d="M 0.75083603,163.22774 0.628049,230.78429 a 39.484267,39.615162 0 0 0 37.313602,39.53735 29.613205,29.711375 0 0 0 2.119896,0.0776 29.613205,29.711375 0 0 0 0.01962,-0.001 39.484267,39.615162 0 0 0 0.01343,5.2e-4 l -9.95e-4,-10e-4 a 29.613205,29.711375 0 0 0 29.581049,-29.70966 29.613205,29.711375 0 0 0 -27.6407,-29.61239 19.742133,19.80758 0 0 1 17.769685,19.70864 19.742133,19.80758 0 0 1 -19.742031,19.80751 19.742133,19.80758 0 0 1 -19.742028,-19.80751 h -0.05056 -0.01083 l 0.08048,-44.27004 c 0.02341,-12.9009 -8.712801,-23.28657 -19.58781105,-23.28657 z"
       id="path834"
       inkscape:export-xdpi="2.3114009"
       inkscape:export-ydpi="2.3114009"
       inkscape:connector-curvature="0" />
  </g>
</svg>
